<svg width="534" height="100" viewBox="0 0 534 100" fill="none" xmlns="http://www.w3.org/2000/svg">
<path d="M527 100C528.713 100 530.356 99.3194 531.568 98.1079C532.779 96.8964 533.46 95.2533 533.46 93.54V6.46C533.46 4.7467 532.779 3.10358 531.568 1.89209C530.356 0.680605 528.713 0 527 0L174.41 0L153.16 100H527Z" fill="white"/>
<path d="M0 6.46V93.54C0 95.2533 0.680605 96.8964 1.89209 98.1079C3.10358 99.3194 4.7467 100 6.46 100H153.16L174.41 0H6.46C4.7467 0 3.10358 0.680605 1.89209 1.89209C0.680605 3.10358 0 4.7467 0 6.46H0Z" fill="#0A2540"/>
<path d="M194.042 50.358C194.042 44.468 197.234 40.592 201.718 40.592C204.91 40.592 207.228 42.53 208.064 45.722L212.624 44.164C211.028 39.338 207.228 36.298 201.718 36.298C194.46 36.298 189.178 42.074 189.178 50.358C189.178 58.642 194.46 64.418 201.718 64.418C207.228 64.418 211.028 61.378 212.624 56.552L208.064 54.994C207.228 58.186 204.91 60.124 201.718 60.124C197.234 60.124 194.042 56.248 194.042 50.358Z" fill="#0A2540"/>
<path d="M233.714 54.044C233.714 47.85 229.724 43.67 224.1 43.67C218.476 43.67 214.486 47.85 214.486 54.044C214.486 60.238 218.476 64.418 224.1 64.418C229.724 64.418 233.714 60.238 233.714 54.044ZM219.084 54.044C219.084 49.978 221.022 47.508 224.1 47.508C227.178 47.508 229.116 49.978 229.116 54.044C229.116 58.11 227.178 60.58 224.1 60.58C221.022 60.58 219.084 58.11 219.084 54.044Z" fill="#0A2540"/>
<path d="M241.443 52.296C241.443 49.446 243.457 47.926 245.395 47.926C247.827 47.926 248.739 49.712 248.739 52.182V64H253.299V52.296C253.299 49.446 255.313 47.926 257.251 47.926C259.683 47.926 260.595 49.712 260.595 52.182V64H265.155V50.852C265.155 46.558 262.495 43.67 258.391 43.67C255.313 43.67 253.413 45.152 252.197 46.444C251.095 44.734 249.309 43.67 246.915 43.67C244.255 43.67 242.545 44.848 241.443 46.178V44.05H236.883V64H241.443V52.296Z" fill="#0A2540"/>
<path d="M273.979 52.296C273.979 49.446 275.993 47.926 277.931 47.926C280.363 47.926 281.275 49.712 281.275 52.182V64H285.835V52.296C285.835 49.446 287.849 47.926 289.787 47.926C292.219 47.926 293.131 49.712 293.131 52.182V64H297.691V50.852C297.691 46.558 295.031 43.67 290.927 43.67C287.849 43.67 285.949 45.152 284.733 46.444C283.631 44.734 281.845 43.67 279.451 43.67C276.791 43.67 275.081 44.848 273.979 46.178V44.05H269.419V64H273.979V52.296Z" fill="#0A2540"/>
<path d="M318.181 44.05H313.621V55.906C313.621 58.756 311.569 60.276 309.517 60.276C307.047 60.276 305.983 58.718 305.983 56.286V44.05H301.423V57.274C301.423 61.568 304.007 64.418 308.187 64.418C310.771 64.418 312.481 63.202 313.621 61.872V64H318.181V44.05Z" fill="#0A2540"/>
<path d="M322.987 64H327.547V52.296C327.547 49.446 329.637 47.926 331.689 47.926C334.197 47.926 335.185 49.712 335.185 52.182V64H339.745V50.852C339.745 46.558 337.237 43.67 333.057 43.67C330.473 43.67 328.687 44.848 327.547 46.178V44.05H322.987V64Z" fill="#0A2540"/>
<path d="M343.943 41.39H348.655V36.716H343.943V41.39ZM348.579 44.05H344.019V64H348.579V44.05Z" fill="#0A2540"/>
<path d="M354.929 58.984C354.929 63.05 356.981 64.228 360.781 64.228C361.959 64.228 363.099 64.114 363.935 63.962V60.124C363.251 60.2 362.833 60.238 362.073 60.238C360.439 60.238 359.413 60.048 359.413 58.262V47.926H363.593V44.05H359.413V38.198H354.929V44.05H352.155V47.926H354.929V58.984Z" fill="#0A2540"/>
<path d="M377.535 65.862L385.743 44.05H381.031L376.243 58.034L371.341 44.05H366.553L373.811 63.278L373.051 65.14C372.405 66.736 371.683 67.154 370.163 67.154C369.593 67.154 369.251 67.116 368.643 67.04V70.878C369.289 70.954 369.555 70.992 370.505 70.992C374.647 70.992 376.395 68.902 377.535 65.862Z" fill="#0A2540"/>
<path d="M417.12 37.05V41.34H403.34V48.23H414.94V52.51H403.34V60.25H417.12V64.53H398.52V37.05H417.12Z" fill="#0A2540"/>
<path d="M428.6 57.57L423.89 64.57H418.89L426 54.12L419.42 44.44H424.62L428.76 50.72L433 44.44H438L431.42 54.12L438.53 64.53H433.37L428.6 57.57Z" fill="#0A2540"/>
<path d="M445.79 62.43V71.43H441.19V44.43H445.79V46.57C446.503 45.7435 447.393 45.088 448.393 44.6518C449.394 44.2156 450.479 44.0099 451.57 44.05C457.19 44.05 460.41 48.79 460.41 54.5C460.41 60.21 457.19 65 451.57 65C450.475 65.034 449.387 64.8206 448.386 64.3756C447.386 63.9306 446.498 63.2656 445.79 62.43V62.43ZM445.67 55.12C445.67 58.83 447.82 60.93 450.67 60.93C454 60.93 455.8 58.33 455.8 54.51C455.8 50.69 454 48.08 450.67 48.08C447.84 48.08 445.67 50.14 445.67 53.93V55.12Z" fill="#0A2540"/>
<path d="M463 54.51C463 48.61 467 44.06 472.57 44.06C478.39 44.06 481.49 48.46 481.49 53.97V55.5H467.37C467.72 58.94 469.78 61.05 472.73 61.05C473.758 61.1214 474.78 60.8418 475.628 60.2568C476.477 59.6719 477.101 58.8162 477.4 57.83L481.34 59.33C480.675 61.0543 479.487 62.5277 477.943 63.5443C476.4 64.5608 474.577 65.0698 472.73 65C467 65 463 60.71 463 54.51ZM467.63 52.06H476.86C476.882 51.4941 476.783 50.93 476.571 50.4051C476.358 49.8802 476.037 49.4063 475.627 49.015C475.218 48.6236 474.73 48.3236 474.196 48.1348C473.662 47.9461 473.094 47.8729 472.53 47.92C470.13 47.92 468.29 49.34 467.6 52.06H467.63Z" fill="#0A2540"/>
<path d="M496.58 49C496.02 48.9262 495.455 48.8895 494.89 48.89C494.207 48.8462 493.522 48.9483 492.881 49.1893C492.24 49.4304 491.658 49.8049 491.173 50.2881C490.688 50.7714 490.311 51.3522 490.067 51.9922C489.824 52.6321 489.719 53.3165 489.76 54V64.53H485.17V44.44H489.76V47.44C490.287 46.4514 491.086 45.6341 492.062 45.0848C493.038 44.5355 494.151 44.2771 495.27 44.34C495.708 44.3406 496.145 44.3673 496.58 44.42V49Z" fill="#0A2540"/>
<path d="M500.82 48.34H498V44.44H500.79V38.55H505.31V44.44H509.52V48.34H505.31V58.75C505.31 60.55 506.31 60.75 507.99 60.75C508.615 60.7556 509.24 60.7189 509.86 60.64V64.5C508.813 64.6842 507.753 64.7745 506.69 64.77C502.86 64.77 500.79 63.59 500.79 59.49L500.82 48.34Z" fill="#0A2540"/>
<path fill-rule="evenodd" clip-rule="evenodd" d="M87 27.59V33.44L79.59 35V29.12L87 27.59ZM125.45 43.12C123.59 43.12 121.52 44.55 121.52 47.96H129.22C129.19 44.55 127.25 43.12 125.42 43.12H125.45ZM100.83 43.58C100.169 43.5484 99.5095 43.6659 98.9002 43.9238C98.2908 44.1817 97.7474 44.5735 97.31 45.07V56.2C97.7455 56.681 98.2832 57.0583 98.8838 57.304C99.4843 57.5498 100.132 57.6578 100.78 57.62C103.5 57.62 105.32 54.62 105.32 50.62C105.32 46.62 103.49 43.58 100.8 43.58H100.83ZM71.55 39.47C72.1151 38.4241 73.0432 37.621 74.1595 37.2121C75.2757 36.8031 76.503 36.8166 77.61 37.25V44.15C76.69 43.84 73.79 43.39 72.07 45.72V63.55H64.81V37.25H71.09L71.55 39.47ZM86.97 37.47V63.55H79.59V37.44L86.97 37.47ZM38.81 37C41.3172 36.9725 43.805 37.4415 46.13 38.38V45.51C43.8796 44.272 41.3673 43.5865 38.8 43.51C37.26 43.51 36.3 43.97 36.3 45.15C36.3 48.56 47.57 46.94 47.57 55.97C47.57 61.42 43.34 64.53 37.22 64.53C34.4431 64.5224 31.6981 63.9367 29.16 62.81V55.58C31.6188 57.0098 34.3803 57.8389 37.22 58C38.87 58 40.05 57.55 40.05 56.15C40.05 52.53 28.85 53.9 28.85 45.51C28.85 40.15 32.83 37 38.81 37ZM56.75 31V37.55H62.33V44H56.76V54.73C56.76 59.17 61.4 57.78 62.34 57.4V63.53C60.7244 64.2701 58.9551 64.613 57.18 64.53C56.1616 64.551 55.1496 64.3641 54.2059 63.9806C53.2622 63.5972 52.4066 63.0252 51.6915 62.2998C50.9764 61.5744 50.4167 60.7108 50.0468 59.7617C49.6769 58.8126 49.5044 57.798 49.54 56.78V32.6L56.75 31ZM125.47 37C132.54 37 136.24 43.12 136.24 50.87C136.24 51.6 136.17 53.19 136.13 53.6H121.55C121.89 57.15 124.44 58.19 127.35 58.19C129.886 58.2384 132.396 57.665 134.66 56.52V62.62C132.132 63.997 129.288 64.6866 126.41 64.62C119.15 64.62 114.07 60 114.07 50.87C114.07 43.07 118.38 37 125.47 37ZM102.56 37C107.72 37 112.56 41.73 112.56 50.46C112.56 59.98 107.75 64.29 102.48 64.29C100.578 64.2845 98.7377 63.6122 97.28 62.39V70.87L89.92 72.46V37.46H96.4L96.78 39.32C98.3248 37.8138 100.403 36.9798 102.56 37Z" fill="white"/>
<path d="M527 1.5C528.326 1.5 529.598 2.02678 530.536 2.96447C531.473 3.90215 532 5.17392 532 6.5V93.54C532 94.8661 531.473 96.1378 530.536 97.0755C529.598 98.0132 528.326 98.54 527 98.54H6.46C5.13392 98.54 3.86215 98.0132 2.92447 97.0755C1.98678 96.1378 1.46 94.8661 1.46 93.54V6.46C1.46 5.13392 1.98678 3.86215 2.92447 2.92447C3.86215 1.98678 5.13392 1.46 6.46 1.46H527V1.5ZM527 0H6.46C4.7467 0 3.10358 0.680605 1.89209 1.89209C0.680605 3.10358 0 4.7467 0 6.46L0 93.54C0 95.2533 0.680605 96.8964 1.89209 98.1079C3.10358 99.3194 4.7467 100 6.46 100H527C528.713 100 530.356 99.3194 531.568 98.1079C532.779 96.8964 533.46 95.2533 533.46 93.54V6.46C533.46 4.7467 532.779 3.10358 531.568 1.89209C530.356 0.680605 528.713 0 527 0Z" fill="transparent"/>
</svg>
